<!DOCTYPE svg PUBLIC "-//W3C//DTD SVG 1.1//EN" "http://www.w3.org/Graphics/SVG/1.1/DTD/svg11.dtd">
<!-- Uploaded to: SVG Repo, www.svgrepo.com, Transformed by: SVG Repo Mixer Tools -->
<svg fill="#ffffff" width="800px" height="800px" viewBox="0 0 36 36" version="1.1" preserveAspectRatio="xMidYMid meet" xmlns="http://www.w3.org/2000/svg" xmlns:xlink="http://www.w3.org/1999/xlink" stroke="#ffffff" stroke-width="0.00036">
<g id="SVGRepo_bgCarrier" stroke-width="0"/>
<g id="SVGRepo_tracerCarrier" stroke-linecap="round" stroke-linejoin="round"/>
<g id="SVGRepo_iconCarrier"> <title>angle-double-line</title> <path class="clr-i-outline clr-i-outline-path-1" d="M29,19.41a1,1,0,0,1-.71-.29L18,8.83,7.71,19.12a1,1,0,0,1-1.41-1.41L18,6,29.71,17.71A1,1,0,0,1,29,19.41Z"/>
<path class="clr-i-outline clr-i-outline-path-2" d="M29,30.41a1,1,0,0,1-.71-.29L18,19.83,7.71,30.12a1,1,0,0,1-1.41-1.41L18,17,29.71,28.71A1,1,0,0,1,29,30.41Z"/> <rect x="0" y="0" width="36" height="36" fill-opacity="0"/> </g>
</svg>